<svg role="img" viewBox="0 0 24 24" xmlns="http://www.w3.org/2000/svg" id="Primeng--Streamline-Simple-Icons.svg"><desc>Primeng Streamline Icon: https://streamlinehq.com</desc><title>PrimeNG</title><path d="M12 0 0.784 3.984l1.711 14.772L12 24l9.506 -5.244 1.71 -14.772ZM8.354 4.212h1.674L9.19 6.124l-2.51 -0.24Zm2.032 0h1.315v6.812h-0.717L5.843 9.112l-0.717 -2.988 4.308 0.35Zm1.794 0h1.314l0.953 2.261 4.427 -0.349 -0.717 2.988 -5.14 1.912h-0.837Zm1.673 0h1.674L17.2 5.885l-2.51 0.239zM5.963 9.59l1.315 0.478 1.315 1.315 1.076 -0.24 -0.837 1.196v3.704l-2.87 -2.39zm11.955 0v4.063l-2.87 2.39v-3.704l-0.837 -1.195 1.077 0.239 1.314 -1.315zm-7.786 1.536 0.596 0.36h2.384l0.597 -0.36 0.953 1.437v5.388l-0.715 1.078 -0.835 0.838h-2.384l-0.834 -0.838 -0.715 -1.078v-5.388zm-2.854 4.08 1.554 1.315v1.793L7.278 16.76Zm9.324 0v1.554l-1.553 1.554V16.52z" fill="#000000" stroke-width="1"></path></svg>