<svg xmlns="http://www.w3.org/2000/svg" enable-background="new 0 0 24 24" viewBox="0 0 24 24" id="visual-studio-code">
  <polygon fill="#1677C7" points="18 19.485 0 17.939 0 18.5 18 24 24 21.5 24 2.5 18 0 18 19.485"></polygon>
  <polygon fill="#1368AD" points="18 0 18 19.485 0 17.939 0 18.5 18 24 21 22.75 21 1.25 18 0"></polygon>
  <path fill="#1677C7" d="M2.419,13.94l3.434-2.59L12,17l3-1.456V4.456L12,3L5.853,8.651L2.418,6.062L1,6.889L4.385,10L1,13.112L2.419,13.94L2.419,13.94z M12,6.717v6.566L7.644,10L12,6.717L12,6.717z"></path>
  <polygon fill="#1368AD" points="15 10 12 10 12 13.283 7.644 10 4.385 10 1 13.112 2.419 13.94 5.853 11.35 12 17 15 15.544 15 10"></polygon>
</svg>
